<?xml version="1.0" standalone="no"?><!DOCTYPE svg PUBLIC "-//W3C//DTD SVG 1.1//EN" "http://www.w3.org/Graphics/SVG/1.1/DTD/svg11.dtd"><svg t="1780822940111" class="icon" viewBox="0 0 1024 1024" version="1.1" xmlns="http://www.w3.org/2000/svg" p-id="19412" xmlns:xlink="http://www.w3.org/1999/xlink" width="200" height="200"><path d="M818.646123 153.883659l62.076904 62.076905-675.541534 675.541534-62.076905-62.076904 675.541535-675.541535Z" fill="#D7D7E2" p-id="19413"></path><path d="M852.589 187.829l30.519 30.519-675.542 675.541-30.519-30.519z" fill="#AFAFC6" p-id="19414"></path><path d="M205.18 894.47a52.15 52.15 0 0 1-37-15.31l-12.72-12.72a52.35 52.35 0 0 1 0-74l626.18-626.21a52.33 52.33 0 0 1 74 0L868.38 179a52.32 52.32 0 0 1 0 74L242.2 879.16a52.18 52.18 0 0 1-37.02 15.31z m-12.34-40a17.5 17.5 0 0 0 24.68 0L843.71 228.3a17.45 17.45 0 0 0 0-24.68L831 190.9a17.9 17.9 0 0 0-24.68 0l-626.2 626.19a17.45 17.45 0 0 0 0 24.68z" fill="#212144" p-id="19415"></path><path d="M171.432 619.593L408.9 857.06l-62.989 62.99a5 5 0 0 1-7.071 0L108.443 689.652a5 5 0 0 1 0-7.071l62.99-62.99z" fill="#F2A75E" p-id="19416"></path><path d="M128.91 702.63l46-46 225.71 225.79 15.55-15.55-237.5-237.5-46 46c-10.1 10.1-15.81 21.22-7.87 32.54a29.29 29.29 0 0 1 4.11-5.28z" fill="#FFFFFF" p-id="19417"></path><path d="M340.71 927.28a46.37 46.37 0 0 1-32.9-13.6L111.43 717.3a46.62 46.62 0 0 1 0-65.8l58.3-58.29L431.9 855.38l-58.3 58.3a46.35 46.35 0 0 1-32.89 13.6z m-171-284.73l-33.62 33.62a11.72 11.72 0 0 0 0 16.45L332.48 889a11.8 11.8 0 0 0 16.45 0l33.62-33.62z" fill="#212144" p-id="19418"></path><path d="M689.217 108.82l230.425 230.425a5 5 0 0 1 0 7.07l-62.989 62.99-237.496-237.496 62.99-62.99a5 5 0 0 1 7.07 0z" fill="#F2A75E" p-id="19419"></path><path d="M640.74 187.93l36.4-36.39a13.53 13.53 0 0 1 19.13 0l216.18 216.18L928 352.17l-237.5-237.5-46 46c-10.1 10.1-15.81 21.22-7.87 32.55a29 29 0 0 1 4.11-5.29z" fill="#FFFFFF" p-id="19420"></path><path d="M855 432.3L592.8 170.13l58.3-58.3a46.59 46.59 0 0 1 65.8 0l196.37 196.38a46.56 46.56 0 0 1 0 65.8zM642.16 170.13L855 383l33.62-33.62a11.78 11.78 0 0 0 0-16.45L692.23 136.51a11.8 11.8 0 0 0-16.46 0z" fill="#212144" p-id="19421"></path><path d="M221.954283 480.041202l323.105372 323.105373-95.035151 95.035151-323.105373-323.105372 95.035152-95.035152Z" fill="#38A883" p-id="19422"></path><path d="M217.27 541.05a16.92 16.92 0 0 1 23.87 0l294.71 294.7a29.15 29.15 0 0 0-0.17-40.92l-282-282a29.17 29.17 0 0 0-41.13 0l-53.9 53.91a29.18 29.18 0 0 0-3.7 36.6z" fill="#FFFFFF" p-id="19423"></path><path d="M450 903.57A46.4 46.4 0 0 1 417.13 890l-282-282a46.58 46.58 0 0 1 0-65.8l53.9-53.91a46.6 46.6 0 0 1 65.81 0l282 282a46.58 46.58 0 0 1 0 65.8L482.93 890A46.38 46.38 0 0 1 450 903.57z m-8.22-38.28a12 12 0 0 0 16.45 0l53.9-53.91a11.8 11.8 0 0 0 0-16.46l-282-282a11.8 11.8 0 0 0-16.45 0l-53.9 53.91a11.73 11.73 0 0 0 0 16.45l282 282z" fill="#212144" p-id="19424"></path><path d="M571.724011 130.281859l323.105372 323.105373-95.035151 95.035151-323.105373-323.105372 95.035152-95.035152Z" fill="#38A883" p-id="19425"></path><path d="M566.24 192.07a17 17 0 0 1 23.88 0l294.7 294.7a29.15 29.15 0 0 0-0.17-40.92l-282-282a29.16 29.16 0 0 0-41.12 0l-53.91 53.9a29.2 29.2 0 0 0-3.69 36.6z" fill="#FFFFFF" p-id="19426"></path><path d="M799.8 553.79a46.21 46.21 0 0 1-32.91-13.6l-282-282a46.59 46.59 0 0 1 0-65.8l53.91-53.9a46.59 46.59 0 0 1 65.8 0l282 282a46.59 46.59 0 0 1 0 65.8l-53.9 53.9a46.2 46.2 0 0 1-32.9 13.6zM571.72 159.84a11.57 11.57 0 0 0-8.23 3.35l-53.9 53.89a11.8 11.8 0 0 0 0 16.46l282 282a12 12 0 0 0 16.44 0l53.91-53.9a11.72 11.72 0 0 0 0-16.45l-282-282a11.6 11.6 0 0 0-8.22-3.35z" fill="#212144" p-id="19427"></path></svg>