<?xml version="1.0" standalone="no"?><!DOCTYPE svg PUBLIC "-//W3C//DTD SVG 1.1//EN" "http://www.w3.org/Graphics/SVG/1.1/DTD/svg11.dtd"><svg t="1780829912191" class="icon" viewBox="0 0 1024 1024" version="1.1" xmlns="http://www.w3.org/2000/svg" p-id="24550" xmlns:xlink="http://www.w3.org/1999/xlink" width="200" height="200"><path d="M821.034667 202.965333a255.914667 255.914667 0 0 1 70.4 229.546667c24.234667 6.826667 47.189333 19.754667 66.304 38.741333a151.466667 151.466667 0 0 1 0 215.338667L725.333333 917.333333l-128.938666-128L469.333333 916.693333 107.52 554.368a256 256 0 0 1 361.813333-361.130667 255.914667 255.914667 0 0 1 351.658667 9.728z m-267.989334 328.874667a66.133333 66.133333 0 0 0 0 94.208L725.333333 797.098667l172.288-171.050667a66.133333 66.133333 0 0 0 0-94.208 68.864 68.864 0 0 0-96.768 0.085333l-75.605333 74.837334-60.032-59.562667-15.488-15.36a68.821333 68.821333 0 0 0-96.682667 0z m-375.04-268.501333a170.666667 170.666667 0 0 0-8.192 232.576L469.333333 795.904l66.517334-66.645333-42.922667-42.666667a151.466667 151.466667 0 0 1 0-215.338667 154.197333 154.197333 0 0 1 216.917333 0l15.488 15.36 15.488-15.36a152.917333 152.917333 0 0 1 62.506667-37.632 170.794667 170.794667 0 0 0-42.709333-170.368 170.581333 170.581333 0 0 0-234.24-6.528l-56.96 51.114667-57.002667-51.072a170.666667 170.666667 0 0 0-234.410667 6.570667z" fill="#ffffff" p-id="24551"></path></svg>