<?xml version="1.0" standalone="no"?><!DOCTYPE svg PUBLIC "-//W3C//DTD SVG 1.1//EN" "http://www.w3.org/Graphics/SVG/1.1/DTD/svg11.dtd"><svg t="1780822878579" class="icon" viewBox="0 0 1024 1024" version="1.1" xmlns="http://www.w3.org/2000/svg" p-id="17670" xmlns:xlink="http://www.w3.org/1999/xlink" width="200" height="200"><path d="M672.768 993.28h-563.2c-42.496 0-76.8-34.304-76.8-76.8V337.92s107.52-51.2 199.68-51.2c79.36 0 191.488 102.4 300.544 102.4 77.312 0 216.576-51.2 216.576-51.2v578.56c0 42.496-34.304 76.8-76.8 76.8z" fill="#319ed6" p-id="17671"></path><path d="M647.168 1018.88h-512c-70.656 0-128-57.344-128-128V81.92c0-42.496 34.304-76.8 76.8-76.8h614.4c42.496 0 76.8 34.304 76.8 76.8v808.96c0 70.656-57.344 128-128 128zM83.968 56.32c-14.336 0-25.6 11.264-25.6 25.6v808.96c0 42.496 34.304 76.8 76.8 76.8h512c42.496 0 76.8-34.304 76.8-76.8V81.92c0-14.336-11.264-25.6-25.6-25.6h-614.4z" fill="#319ed6" p-id="17672"></path><path d="M723.968 799.744V261.12h222.208c42.496 0 76.8 34.304 76.8 76.8v169.472c0 72.192-38.912 140.288-101.376 176.64l-197.632 115.712z m51.2-487.424v398.336l120.32-70.656c46.592-27.648 75.776-78.336 75.776-132.608V337.92c0-14.336-11.264-25.6-25.6-25.6h-170.496z" fill="#319ed6" p-id="17673"></path></svg>