<?xml version="1.0" standalone="no"?><!DOCTYPE svg PUBLIC "-//W3C//DTD SVG 1.1//EN" "http://www.w3.org/Graphics/SVG/1.1/DTD/svg11.dtd"><svg t="1780829769106" class="icon" viewBox="0 0 1024 1024" version="1.1" xmlns="http://www.w3.org/2000/svg" p-id="22371" xmlns:xlink="http://www.w3.org/1999/xlink" width="200" height="200"><path d="M383.936 736.064v-191.872c0-17.664 14.304-31.968 31.936-31.968h191.68c17.632 0 31.936 14.304 31.936 32v191.84h95.84v-318.976l-223.296-124.224-223.936 124.608v318.592h95.84z m-159.744-287.68a32.224 32.224 0 0 1-16-60.192l287.552-159.904a31.936 31.936 0 0 1 31.936 0l287.52 159.872a32 32 0 0 1-15.968 60.128V768c0 17.664-14.304 31.968-31.936 31.968H256.16a31.968 31.968 0 0 1-31.968-32v-319.648z m223.616 287.68h127.808v-159.904h-127.808v159.904z" fill="#ffffff" p-id="22372"></path></svg>