<?xml version="1.0" standalone="no"?><!DOCTYPE svg PUBLIC "-//W3C//DTD SVG 1.1//EN" "http://www.w3.org/Graphics/SVG/1.1/DTD/svg11.dtd"><svg t="1780891606945" class="icon" viewBox="0 0 1024 1024" version="1.1" xmlns="http://www.w3.org/2000/svg" p-id="20135" xmlns:xlink="http://www.w3.org/1999/xlink" width="200" height="200"><path d="M243.2 204.8A12.8 12.8 0 0 1 256 192h320v166.4c0 21.197 17.203 38.4 38.4 38.4h166.4v89.6a38.4 38.4 0 0 0 76.8 0V379.597a89.6 89.6 0 0 0-0.922-12.8 38.4 38.4 0 0 0-16.896-40.807 89.805 89.805 0 0 0-8.448-9.728L656.538 141.466a89.754 89.754 0 0 0-9.728-8.448 38.4 38.4 0 0 0-40.807-16.896 89.549 89.549 0 0 0-12.8-0.922H256a89.6 89.6 0 0 0-89.6 89.6v614.4c0 49.46 40.14 89.6 89.6 89.6h179.2a38.4 38.4 0 0 0 0-76.8H256a12.8 12.8 0 0 1-12.8-12.8V204.8z m409.6 41.472L726.528 320H652.8v-73.728z" fill="#707070" p-id="20136"></path><path d="M740.864 587.264a38.4 38.4 0 0 1 54.272 0l76.8 76.8a38.4 38.4 0 0 1 0 54.272l-179.2 179.2A38.4 38.4 0 0 1 665.6 908.8h-76.8a38.4 38.4 0 0 1-38.4-38.4v-76.8a38.4 38.4 0 0 1 11.264-27.136l179.2-179.2zM627.2 809.472V832h22.528l140.8-140.8L768 668.672l-140.8 140.8z" fill="#707070" p-id="20137"></path></svg>