<?xml version="1.0" standalone="no"?><!DOCTYPE svg PUBLIC "-//W3C//DTD SVG 1.1//EN" "http://www.w3.org/Graphics/SVG/1.1/DTD/svg11.dtd"><svg t="1780887753864" class="icon" viewBox="0 0 1024 1024" version="1.1" xmlns="http://www.w3.org/2000/svg" p-id="7002" xmlns:xlink="http://www.w3.org/1999/xlink" width="200" height="200"><path d="M449.6 927.535H87.8c-44.5-4.4-78.6-41.4-79.2-86.1-0.1-47.6 8.2-94.9 24.6-139.7 37.4-98.1 108.1-180 199.6-231.5-25.3-31.4-43.1-68.3-51.9-107.7-17.6-78.4 1.1-160.6 50.8-223.7l0.3-0.4c20.4-26.3 45.4-48.9 73.6-66.6 41-24.8 87.1-40 134.8-44.5h0.5c8.9-0.8 18-1.3 27-1.3 71.9 0.2 141.6 25.6 196.7 71.8 61 51.2 96.3 126.6 96.7 206.2-0.2 22.2-2.4 44.3-6.8 66-1.6 8.4-3.5 16.2-5.3 22.8-1.1 3.8-2.1 6.9-3.2 9.7-2.3 6.2-5.6 11.9-9.7 17.1-9.3 17.6-20.4 34.2-33 49.7 11.4 6.5 22.5 13.5 33.2 20.9 3.3 2.3 6.4 5 9.1 8 20.9 15.2 40.5 32.1 58.7 50.4 22 22.4 21.7 58.4-0.7 80.4-11.3 11.1-26.6 17-42.4 16.3H758c-131-4.4-242.1 95.7-251.1 226.5-0.7 31.1-26.2 55.9-57.3 55.7z m-326-113.7h275.1c14.1-71.2 50.8-136 104.7-184.7 34.6-31.7 75-56.5 119-73-12.8-5.8-26-10.9-39.4-15.2-29.9-9.6-46.3-41.7-36.7-71.6 3.9-12.1 11.8-22.6 22.3-29.7 30.8-20.3 55.5-48.6 71.3-82 0.4-0.9 0.9-1.8 1.3-2.7 3.8-16.7 5.8-33.7 6-50.7-0.3-46.4-20.9-90-56.4-119.6-34.5-28.8-78-44.6-123-44.7-5.7 0-11 0-16.4 0.7-31.2 2.9-61.3 12.9-88 29.2-1.3 0.8-2.7 1.6-4 2.3-14.6 10.8-27.7 23.5-38.8 37.8-28.1 36.6-38.5 83.8-28.4 128.9 10.8 41.8 37.3 77.9 74 100.7 26.3 17.2 33.7 52.4 16.5 78.7-7.1 10.8-17.6 18.9-29.8 22.9-97.6 31.4-175.8 105.1-212.9 200.6-8.6 23.2-14.2 47.4-16.4 72.1z" fill="#ffffff" p-id="7003"></path><path d="M606.7 813.035h381.1c1.4 0 2.6-0.4 4-0.6 1.2 0 2.4-0.6 3.7-1h0.3l3.4-1.3h0.5l3-1.5 0.7-0.3c0.9-0.5 1.8-1.1 2.6-1.7l0.7-0.6 2.3-1.9 0.7-0.6 2.2-2.2 0.4-0.3c0.7-0.8 1.4-1.6 2-2.4l0.3-0.6c0.6-0.9 1.2-1.8 1.7-2.7l0.3-0.5 1.5-2.8v-0.5c0.5-1 0.9-2 1.3-3.1v-0.3c0.3-1 0.6-2 0.9-3.1v-0.5c0.2-1 0.4-2 0.5-3.1v-0.6c0.1-0.9 0.1-1.9 0-2.8v-1.9-2.8l-0.3-3v-0.7c-0.1-1-0.4-2-0.6-3v-0.6c-0.2-1-0.5-1.9-0.9-2.8v-0.7l-1.1-2.7c-0.2-0.3-0.3-0.6-0.4-0.9-0.4-0.8-0.8-1.6-1.4-2.3l-0.5-0.9-1.5-2.2c-0.2-0.3-0.5-0.5-0.6-0.9-0.5-0.7-1.1-1.4-1.7-2.1l-0.7-0.7c-0.6-0.7-1.3-1.4-2.1-2l-0.4-0.4-101-89.3c-15.9-13.9-40.1-12.2-53.9 3.8-13.7 15.7-12.2 39.6 3.3 53.5l25.3 22.4H605.5c-21.1-0.1-38.3 16.9-38.4 38-0.1 21.1 16.9 38.3 38 38.4h0.4l1.2-1.2z m379 44.4H608.3c-0.5-0.1-0.9-0.1-1.4 0-0.5-0.1-1.1-0.1-1.6 0-0.8-0.1-1.6-0.1-2.3 0h-1.4c-0.8 0.1-1.6 0.3-2.3 0.5l-1.3 0.4-2.3 0.7c-0.4 0.1-0.9 0.3-1.3 0.5l-2.2 0.9c-0.4 0-0.9 0.3-1.3 0.6l-2 1.1-1.3 0.7-1.9 1.3-1.3 0.9c-0.6 0.5-1.2 1-1.7 1.5-0.4 0.3-0.7 0.6-1 1-0.6 0.6-1.2 1.2-1.7 1.9 0 0-0.3 0.3-0.5 0.6s0 0 0 0.3c-0.6 0.6-1.1 1.4-1.6 2.1l-0.7 1c-0.5 0.7-1 1.4-1.4 2.1-0.3 0.4-0.5 0.7-0.6 1.1l-1.1 2.2c-0.2 0.4-0.4 0.8-0.6 1.3-0.3 0.7-0.6 1.5-0.9 2.2 0 0.4-0.4 0.9-0.5 1.3-0.1 0.4-0.3 1.5-0.6 2.2l-0.4 1.5-0.3 2.1c-0.1 0.5-0.1 1.1 0 1.6-0.1 0.7-0.1 1.3 0 2v3.9c-0.1 0.6-0.1 1.3 0 1.9-0.1 0.7-0.1 1.3 0 2v1.7c0 0.6 0 1.4 0.4 2l0.3 1.6c0 0.6 0.4 1.4 0.6 2 0.2 0.6 0.4 1.1 0.6 1.6 0.2 0.5 0.5 1.3 0.7 1.7 0.2 0.6 0.5 1.2 0.9 1.7 0.2 0.5 0.5 1 0.9 1.5l1.1 1.7c0 0.5 0.6 0.9 0.9 1.4 0.2 0.5 0.9 1.1 1.3 1.7l1.1 1.4 1.4 1.5c0.4 0.5 0.9 0.9 1.4 1.4l0.9 0.9 101 89.3c7 6.2 16 9.6 25.3 9.6 21.1 0 38.3-17.2 38.2-38.3 0-10.9-4.7-21.4-12.9-28.6l-25.4-22.8h276.3c21.1 0 38.3-17.1 38.3-38.3 0-21.1-17.1-38.3-38.3-38.3l-0.1 0.2z" fill="#ffffff" p-id="7004"></path></svg>