<?xml version="1.0" standalone="no"?><!DOCTYPE svg PUBLIC "-//W3C//DTD SVG 1.1//EN" "http://www.w3.org/Graphics/SVG/1.1/DTD/svg11.dtd"><svg t="1780801107541" class="icon" viewBox="0 0 1024 1024" version="1.1" xmlns="http://www.w3.org/2000/svg" p-id="13757" xmlns:xlink="http://www.w3.org/1999/xlink" width="200" height="200"><path d="M923.5 868h-823c-19.24 0-34.9-15.33-34.9-34.17V298c0-18.84 15.65-34.17 34.9-34.17h37.73v22.39H100.5c-6.9 0-12.51 5.29-12.51 11.78v535.83c0 6.5 5.61 11.78 12.51 11.78h823c6.9 0 12.51-5.29 12.51-11.78V298c0-6.5-5.61-11.78-12.51-11.78h-40.32v-22.39h40.32c19.24 0 34.9 15.33 34.9 34.17v535.83c0 18.84-15.66 34.17-34.9 34.17z" fill="#8a8a8a" p-id="13758"></path><path d="M657.8 280.27v73.34h-54.9v-73.34h54.9m0-22.39h-54.9c-12.36 0-22.39 10.02-22.39 22.39v73.34c0 12.36 10.02 22.39 22.39 22.39h54.9c12.36 0 22.39-10.02 22.39-22.39v-73.34c-0.01-12.37-10.03-22.39-22.39-22.39zM817.76 291.51h-82.32c-6.18 0-11.19-5.01-11.19-11.19s5.01-11.19 11.19-11.19h82.32c6.18 0 11.19 5.01 11.19 11.19s-5.01 11.19-11.19 11.19zM817.76 360.02h-82.32c-6.18 0-11.19-5.01-11.19-11.19s5.01-11.19 11.19-11.19h82.32c6.18 0 11.19 5.01 11.19 11.19s-5.01 11.19-11.19 11.19zM713.92 649.28H591.71c-6.18 0-11.19-5.01-11.19-11.19s5.01-11.19 11.19-11.19h122.21c6.18 0 11.19 5.01 11.19 11.19s-5.01 11.19-11.19 11.19zM828.49 649.28h-56.68c-6.18 0-11.19-5.01-11.19-11.19s5.01-11.19 11.19-11.19h56.68c6.18 0 11.19 5.01 11.19 11.19 0.01 6.18-5 11.19-11.19 11.19zM657.93 462.46h-66.22c-6.18 0-11.19-5.01-11.19-11.19s5.01-11.19 11.19-11.19h66.22c6.18 0 11.19 5.01 11.19 11.19s-5.01 11.19-11.19 11.19zM811.14 462.46h-98.08c-6.18 0-11.19-5.01-11.19-11.19s5.01-11.19 11.19-11.19h98.08c6.18 0 11.19 5.01 11.19 11.19s-5.01 11.19-11.19 11.19zM758.78 572.69H591.71c-6.18 0-11.19-5.01-11.19-11.19s5.01-11.19 11.19-11.19h167.08c6.18 0 11.19 5.01 11.19 11.19s-5.02 11.19-11.2 11.19z" fill="#8a8a8a" p-id="13759"></path><path d="M810.99 561.5m-11.19 0a11.19 11.19 0 1 0 22.38 0 11.19 11.19 0 1 0-22.38 0Z" fill="#8a8a8a" p-id="13760"></path><path d="M397.75 440.99h-31.31c-28.06 0-49.23-14.4-49.23-33.5V261.7c0-6.18 5.01-11.19 11.19-11.19s11.19 5.01 11.19 11.19v145.78c0 3.82 10.45 11.12 26.84 11.12h31.31c16.39 0 26.84-7.3 26.84-11.12V261.7c0-6.18 5.01-11.19 11.19-11.19s11.19 5.01 11.19 11.19v145.78c0.01 19.1-21.15 33.51-49.21 33.51zM256.04 522.77h-35.11c-14.25 0-25.85-11.6-25.85-25.85V309.94c0-32.11 26.12-58.23 58.23-58.23h2.73c14.25 0 25.85 11.6 25.85 25.85v219.36c0 14.25-11.59 25.85-25.85 25.85z m-2.73-248.67c-19.76 0-35.84 16.08-35.84 35.84v186.98c0 1.91 1.55 3.46 3.46 3.46h35.11c1.91 0 3.46-1.55 3.46-3.46V277.56c0-1.91-1.55-3.46-3.46-3.46h-2.73z" fill="#8a8a8a" p-id="13761"></path><path d="M281.89 496.29H259.5v172.06c0 6.18 5.01 11.19 11.19 11.19s11.19-5.01 11.19-11.19V496.29zM393.29 431.26H370.9v238.55c0 6.18 5.01 11.19 11.19 11.19s11.19-5.01 11.19-11.19V431.26zM382.09 246.23c-6.18 0-11.19 5.01-11.19 11.19V375.8c0 6.18 5.01 11.19 11.19 11.19s11.19-5.01 11.19-11.19V257.43c0.01-6.19-5-11.2-11.19-11.2z" fill="#8a8a8a" p-id="13762"></path><path d="M145.12 764.47c-11.6 0-21.04-10.06-21.04-22.42V190.33c0-18.56 13.85-33.66 30.88-33.66h295.27c38.73 0 70.25 35.25 70.25 78.59v518.02H498.1V235.26c0-30.99-21.47-56.2-47.86-56.2H154.96c-4.6 0-8.49 5.16-8.49 11.27v551.72c0 0.33 0.09 0.54 0.13 0.58-0.13-0.18-0.71-0.55-1.48-0.55v22.39z" fill="#8a8a8a" p-id="13763"></path><path d="M878.73 764.44v-22.39c-0.68 0-1.2 0.32-1.32 0.48 0 0 0.12-0.17 0.12-0.53V189.68c0-6.12-4.03-11.3-8.79-11.3H568.97c-26.89 0-48.76 25.25-48.76 56.28V742c0 0.37 0.11 0.53 0.12 0.54-0.12-0.16-0.63-0.48-1.32-0.48v22.39c-11.68 0-21.19-10.07-21.19-22.44V234.67c0-43.38 31.92-78.67 71.15-78.67h299.77c17.19 0 31.18 15.11 31.18 33.69V742c0 12.38-9.51 22.44-21.19 22.44z" fill="#8a8a8a" p-id="13764"></path><path d="M445.3 744.15c28.3 0 52.03 19.92 57.91 46.48H146.53v-46.48H445.3m0-22.38H124.14v91.25H527v-9.56c0-45.12-36.58-81.69-81.7-81.69z" fill="#8a8a8a" p-id="13765"></path><path d="M877.47 744.15v46.48H520.7c5.88-26.56 29.61-46.48 57.91-46.48h298.86m22.39-22.38H578.61c-45.12 0-81.7 36.58-81.7 81.7v9.56h402.94v-91.26h0.01z" fill="#8a8a8a" p-id="13766"></path></svg>