<?xml version="1.0" standalone="no"?><!DOCTYPE svg PUBLIC "-//W3C//DTD SVG 1.1//EN" "http://www.w3.org/Graphics/SVG/1.1/DTD/svg11.dtd"><svg t="1780737978966" class="icon" viewBox="0 0 1024 1024" version="1.1" xmlns="http://www.w3.org/2000/svg" p-id="2447" xmlns:xlink="http://www.w3.org/1999/xlink" width="200" height="200"><path d="M225.194667 574.577778c4.465778 3.982222 11.150222 5.944889 17.863111 5.944889a24.490667 24.490667 0 0 0 17.863111-7.879111l118.328889-124.245334V999.537778c0 11.832889 11.178667 21.674667 24.576 21.674666h81.493333c13.397333 0 24.576-9.841778 24.576-21.674666V681.073778h34.588445V1001.528889c0 11.832889 11.178667 21.674667 24.576 21.674667h81.493333c13.397333 0 24.547556-9.841778 24.547555-21.674667v-552.106667l122.823112 125.212445c8.931556 8.874667 24.547556 8.874667 34.616888 0.995555l59.164445-53.248a18.602667 18.602667 0 0 0 0-28.586666l-173.056-169.585778c-35.726222-34.503111-87.068444-55.182222-139.548445-55.182222H473.031111c-53.589333 0.967111-103.822222 20.679111-139.548444 55.182222L161.564444 494.734222a18.602667 18.602667 0 0 0 0 28.615111L225.194667 574.577778z m166.343111-454.485334c0 66.076444 60.302222 119.296 133.973333 119.296s133.973333-53.219556 133.973333-119.296c0-66.048-60.302222-119.267556-133.973333-119.267555s-133.973333 53.219556-133.973333 119.267555z" fill="#36da28" p-id="2448"></path></svg>